<?xml version="1.0" encoding="iso-8859-1"?>
<!-- Generator: Adobe Illustrator 16.0.0, SVG Export Plug-In . SVG Version: 6.00 Build 0)  -->
<!DOCTYPE svg PUBLIC "-//W3C//DTD SVG 1.1//EN" "http://www.w3.org/Graphics/SVG/1.1/DTD/svg11.dtd">
<svg version="1.1" id="Capa_1" xmlns="http://www.w3.org/2000/svg" xmlns:xlink="http://www.w3.org/1999/xlink" x="0px" y="0px"
	 width="274.368px" height="274.368px" viewBox="0 0 274.368 274.368" style="enable-background:new 0 0 274.368 274.368;"
	 xml:space="preserve">
<g>
	<g>
		<path stroke="black" d="M79.076,261.45l22.118-21.077c-42.673-14.879-73.296-55.444-73.296-103.188c0-0.589,0.037-1.177,0.046-1.765
			l-10.419,0.233c0-66.088,53.576-119.662,119.659-119.662v11.903c49.588,0,91.442,33.039,104.809,78.297l22.113-21.081
			C243.598,35.178,194.51,0,137.184,0C61.421,0,0.004,61.421,0.004,137.185C0.004,192.167,32.371,239.57,79.076,261.45z"/>





		<path fill="red"  d="M231.837,161.238l-73.726,70.268C193.88,223.693,222.335,196.344,231.837,161.238z"/>
		<path fill="red" d="M56.747,89.293l-2.168-1.295c-8.847,14.825-13.521,31.834-13.521,49.187h2.389c0,43.674,30.075,80.366,70.573,90.718
			l8.324-7.934c-39.351-7.038-69.339-41.443-69.339-82.784h2.39c0-14.767,3.977-29.24,11.493-41.841l-1.939-1.162
			c7.752-12.975,18.825-23.758,32.128-30.997l1.125,2.075c12.855-6.984,27.79-10.405,42.274-9.803l0.091-2.29
			c15.635,0.628,30.187,5.477,42.518,13.53l-1.261,1.93c12.34,8.058,22.3,19.289,28.796,32.49l2.03-0.999
			c3.995,8.1,6.734,16.918,7.943,26.208l8.326-7.934c-1.629-7.895-4.224-15.441-7.7-22.491l2.263-1.113
			c-7.63-15.506-19.33-28.702-33.826-38.165l-1.358,2.079c-13.726-8.97-29.93-14.376-47.348-15.07l0.096-2.504
			c-17.019-0.639-34.576,3.328-49.684,11.533l1.158,2.128C77.704,62.849,65.378,74.846,56.747,89.293z"/>
		<path fill="red" d="M235.337,135.653h-4.489c-0.07-3.937-0.401-7.804-0.934-11.603l-8.858,8.445c0.057,1.055,0.215,2.088,0.233,3.157H221
			c0,13.749-3.393,26.705-9.287,38.162l22.023-20.987C234.726,147.237,235.337,141.524,235.337,135.653z"/>
		<path fill="red" d="M149.71,232.906l22.015-20.983c-10.547,4.798-22.215,7.537-34.545,7.537v1.899c-3.001,0-5.955-0.173-8.875-0.476
			l-8.732,8.316c5.712,1.092,11.586,1.718,17.611,1.718v2.879C141.438,233.802,145.599,233.438,149.71,232.906z"/>



		<path fill="green" d="M139.251,99.339c-22.003,0-39.91,17.908-39.91,39.917c0,22.005,17.903,39.913,39.91,39.913
			c22.006,0,39.908-17.907,39.908-39.913C179.16,117.247,161.257,99.339,139.251,99.339z M139.251,104.662
			c6.133,0,11.892,1.626,16.895,4.441l-7.873,12.865c-2.702-1.414-5.766-2.222-9.021-2.222c-0.1,0-0.2,0.014-0.296,0.014
			l-1.683-14.993C137.929,104.725,138.584,104.662,139.251,104.662z M139.251,173.844c-19.067,0-34.585-15.518-34.585-34.587
			c0-7.941,2.714-15.243,7.231-21.088l11.096,10.319c-2.051,3.087-3.25,6.786-3.25,10.76c0,10.763,8.751,19.518,19.508,19.518
			c0.101,0,0.191-0.019,0.292-0.019l1.683,14.991C140.565,173.783,139.921,173.844,139.251,173.844z M139.251,153.444
			c-7.827,0-14.192-6.366-14.192-14.188c0-7.832,6.366-14.197,14.192-14.197c7.827,0,14.192,6.371,14.192,14.197
			C153.444,147.078,147.079,153.444,139.251,153.444z M166.578,160.38l-11.089-10.314c2.067-3.099,3.276-6.814,3.276-10.818
			c0-5.589-2.376-10.627-6.156-14.188l7.962-12.998c8.069,6.335,13.273,16.152,13.273,27.186
			C173.839,147.219,171.114,154.532,166.578,160.38z"/>



		<path fill="yellow" d="M139.793,201.763c34.172,0,61.979-27.802,61.979-61.974c0-34.177-27.802-61.977-61.979-61.977v-4.333
			c-36.623,0-66.31,29.688-66.31,66.31h4.335C77.818,173.961,105.618,201.763,139.793,201.763z M117.141,139.789
			c0,12.512,10.142,22.654,22.652,22.654c5.913,0,11.247-2.314,15.284-6.021l11.972,11.967c7.672-7.673,11.388-17.796,11.191-27.854
			c0.196-10.058-3.52-20.173-11.191-27.849l-11.169,11.164c-4.103-4.145-9.791-6.721-16.087-6.721v-24.98
			c26.266,0,47.642,21.373,47.642,47.639s-21.376,47.637-47.642,47.637c-26.267,0-47.637-21.371-47.637-47.637H117.141z"/>


<path fill="rgb(0,255,255)" d="M54.877,190.65c8.873,14.785,21.506,27.05,36.527,35.488c1.108,0.616,2.315,0.915,3.503,0.915
			c0.91,0,1.783-0.229,2.625-0.561c11.47,5.619,24.192,8.998,37.649,9.633c1.314,1.597,3.279,2.623,5.496,2.623
			c0.023,0,0.049,0,0.068,0c17.277-0.163,34.256-4.854,49.088-13.562c1.914-1.125,3.085-3.006,3.417-5.031
			c10.902-7.28,20.213-16.727,27.391-27.703c2.039-0.346,3.916-1.513,5.026-3.444c8.569-14.911,13.091-31.928,13.091-49.219
			c0-2.248-1.055-4.226-2.664-5.54c-2.848-49.765-43.451-89.494-93.58-90.898c-1.367-1.573-3.379-2.567-5.582-2.485
			c-17.268,0.492-34.146,5.512-48.824,14.51c-1.902,1.167-3.034,3.083-3.316,5.134c-10.729,7.463-19.823,17.061-26.782,28.147
			c-2.061,0.368-3.948,1.596-5.038,3.579c-7.948,14.487-12.148,30.932-12.148,47.553l0.014,1.885c0.04,2.24,1.115,4.2,2.749,5.484
			c1.022,13.417,4.751,26.074,10.716,37.411C53.613,186.524,53.732,188.741,54.877,190.65z M53.116,146.579
			c1.295-1.32,2.093-3.141,2.058-5.139l-0.014-1.657c0-14.223,3.589-28.278,10.386-40.657c0.955-1.738,1.109-3.703,0.593-5.472
			c6.24-9.929,14.389-18.523,23.984-25.228c0.564,0.142,1.148,0.219,1.736,0.219c1.281,0,2.576-0.338,3.741-1.055
			c12.541-7.696,26.969-11.982,41.738-12.402c2.002-0.056,3.785-0.931,5.05-2.294c45.065,1.342,81.553,37.052,84.166,81.795
			c-1.316,1.3-2.133,3.097-2.133,5.094c0,14.791-3.869,29.342-11.187,42.079c-0.999,1.74-1.182,3.72-0.682,5.507
			c-6.422,9.782-14.729,18.216-24.446,24.731c-1.802-0.495-3.799-0.299-5.535,0.719c-12.676,7.443-27.19,11.453-41.962,11.588
			c-1.993,0.019-3.79,0.85-5.068,2.18c-12.053-0.588-23.438-3.612-33.722-8.634c-0.497-1.774-1.669-3.352-3.398-4.331
			c-12.851-7.216-23.657-17.712-31.25-30.359c-1.039-1.723-2.677-2.843-4.483-3.271C57.389,169.863,54.052,158.56,53.116,146.579z"
			/>

		<g fill="rgb(0,255,255)">
		<path d="M90.205,270.457l11.574-16.166c-1.871-0.621-3.722-1.288-5.551-2.003c-0.026,0.038-0.03,0.089-0.059,0.117l-11.364,15.877
			C86.583,269.053,88.39,269.767,90.205,270.457z"/>
		<path d="M96.79,272.781c1.893,0.611,3.806,1.177,5.731,1.708l11.966-16.717c-1.998-0.43-3.972-0.91-5.929-1.438L96.79,272.781z"/>
		<path d="M145.3,279.437c0.103-0.728,0.299-1.428,0.71-2.002l13.291-18.57c-2.529,0.415-5.087,0.756-7.682,1.013l-14.057,19.644
			c0.74,0.01,1.482,0.061,2.226,0.061C141.644,279.577,143.471,279.512,145.3,279.437z"/>
		<path d="M109.518,276.235c2.016,0.448,4.053,0.85,6.093,1.199c0.005,0,0.005-0.005,0.005-0.005l12.552-17.543
			c-2.146-0.206-4.284-0.462-6.396-0.779L109.518,276.235z"/>
		<path d="M136.071,260.367l-13.009,18.174c2.338,0.284,4.688,0.504,7.063,0.667c0.119-0.64,0.319-1.265,0.688-1.773l12.206-17.049
			c-1.075,0.028-2.142,0.079-3.227,0.079C138.547,260.46,137.308,260.404,136.071,260.367z"/>
		<path d="M168.972,256.876l-15.775,22.048c2.604-0.253,5.199-0.556,7.757-0.943c0.098-0.182,0.141-0.383,0.262-0.546l16.545-23.125
			C174.88,255.266,171.949,256.13,168.972,256.876z"/>
		</g>


    <path d="M91.267,152.143H75.332c6.615,28.264,31.925,49.335,62.205,49.335c30.282,0,55.592-21.071,62.205-49.34h-15.934
			c-6.197,19.657-24.567,33.911-46.271,33.911C115.834,186.053,97.47,171.795,91.267,152.143z"/>
    <path d="M201.487,137.537c0-35.318-28.632-63.944-63.946-63.944c-35.316,0-63.943,28.63-63.943,63.944
			c0,0.091,0.014,0.177,0.014,0.268h15.427c0-0.091-0.014-0.177-0.014-0.268c0-26.796,21.721-48.517,48.517-48.517
			c26.796,0,48.517,21.72,48.517,48.517c0,0.091-0.01,0.177-0.015,0.268h15.435C201.468,137.714,201.487,137.627,201.487,137.537z"/>


            <path fill="blue"
                d="M130.368,13.763V0.187C82.74,2.632,41.511,29.309,18.776,68.13l11.737,6.777C50.911,40.139,87.757,16.195,130.368,13.763z"/>
            <path fill="blue"
                d="M215.502,24.264l-6.795,11.775c31.937,22.423,52.826,59.508,52.826,101.498c0,66.069-51.683,120.058-116.826,123.768v13.577c72.629-3.725,130.37-63.795,130.37-137.35C275.078,90.534,251.476,49.072,215.502,24.264z"/>
            <path fill="blue"
                d="M203.293,16.746C185.722,7.164,165.859,1.27,144.708,0.187v13.577c18.678,1.066,36.244,6.28,51.81,14.715L203.293,16.746z"/>
            <path fill="blue"
                d="M130.368,274.891V261.31c-65.143-3.715-116.824-57.704-116.824-123.773c0-17.735,3.752-34.581,10.461-49.835L12.2,80.885C4.378,98.167,0,117.335,0,137.537C0.004,211.092,57.746,271.157,130.368,274.891z"/>


		<path fill="red" d="M193.04,151.139c-2.521-0.808-5.204,0.588-6.007,3.099c-6.716,21.044-26.093,35.181-48.206,35.181
			c-7.966,0-15.585-1.797-22.646-5.339c-2.366-1.186-5.239-0.224-6.415,2.133c-1.186,2.361-0.229,5.231,2.133,6.417
			c8.405,4.21,17.467,6.348,26.934,6.348c26.29,0,49.317-16.812,57.312-41.836C196.941,154.63,195.556,151.941,193.04,151.139z"/>
		<path fill="red"  d="M146.626,88.833c2.604,0.387,5.055-1.386,5.456-3.995s-1.382-5.052-3.995-5.454c-3.048-0.474-6.163-0.707-9.26-0.707
			c-33.166,0-60.149,26.983-60.149,60.149c0,2.642,2.14,4.779,4.779,4.779c2.637,0,4.779-2.138,4.779-4.779
			c0-27.896,22.696-50.591,50.591-50.591C141.437,88.236,144.064,88.437,146.626,88.833z"/>
	</g>
</g>
<g>
</g>
<g>
</g>
<g>
</g>
<g>
</g>
<g>
</g>
<g>
</g>
<g>
</g>
<g>
</g>
<g>
</g>
<g>
</g>
<g>
</g>
<g>
</g>
<g>
</g>
<g>
</g>
<g>
</g>
</svg>
