<?xml version="1.0" encoding="iso-8859-1"?>
<!-- Generator: Adobe Illustrator 16.0.0, SVG Export Plug-In . SVG Version: 6.00 Build 0)  -->
<!DOCTYPE svg PUBLIC "-//W3C//DTD SVG 1.1//EN" "http://www.w3.org/Graphics/SVG/1.1/DTD/svg11.dtd">
<svg version="1.1" id="Capa_1" xmlns="http://www.w3.org/2000/svg" xmlns:xlink="http://www.w3.org/1999/xlink" x="0px" y="0px"
	 width="266.84px" height="266.84px" viewBox="0 0 266.84 266.84" style="enable-background:new 0 0 266.84 266.84;"
	 xml:space="preserve">
<g>
	<path d="M47.905,149.535c-0.252-1.134,0.465-2.268,1.597-2.511c1.139-0.261,2.261,0.458,2.513,1.597
		c1.134,5.068,2.863,9.852,5.038,14.355l-3.661,2.109C51.016,160.214,49.135,155.024,47.905,149.535z M77.814,192.827l2.107-3.654
		c-7.451-4.914-13.822-11.327-18.738-18.841l-3.662,2.104C62.816,180.604,69.73,187.53,77.814,192.827z M176.387,172.236
		l-3.659-2.109c-4.965,7.401-11.303,13.758-18.603,18.687l2.109,3.659C164.178,187.157,171.043,180.269,176.387,172.236z
		 M87.26,193.309l-2.112,3.663c8.45,4.191,17.835,6.744,27.767,7.327v-4.214C103.753,199.516,95.08,197.154,87.26,193.309z
		 M121.341,200.09v4.214c9.754-0.583,19.119-3.263,27.604-7.607l-2.1-3.654C138.981,197.037,130.344,199.511,121.341,200.09z
		 M215.442,97.257l11.854-4.364c-16.521-44.75-59.613-76.743-110.031-76.743v12.641C162.25,28.791,200.689,57.333,215.442,97.257z
		 M260.526,114.743c-3.491,0-6.319,2.831-6.319,6.319v51.628l-125.048-43.638l27.086-9.959
		c-5.844-15.887-21.058-27.242-38.971-27.242c-22.959,0-41.569,18.617-41.569,41.569c0,22.953,18.61,41.565,41.569,41.565
		c16.526,0,30.737-9.671,37.431-23.634l4.891,1.703c-6.31,17.296-22.866,29.711-42.321,29.711
		c-24.889,0-45.133-20.246-45.133-45.136c0-2.329-1.888-4.21-4.217-4.21c-2.326,0-4.209,1.881-4.209,4.21
		c0,29.538,24.028,53.564,53.564,53.564c23.13,0,42.825-14.767,50.288-35.349l10.78,3.762c-0.467,1.078-0.858,2.193-1.381,3.229
		l3.659,2.109c0.653-1.274,1.134-2.637,1.698-3.948l9.96,3.477c-12.232,29.459-41.178,50.278-75.01,50.278
		c-44.848,0-81.331-36.478-81.331-81.323c0-3.494-2.828-6.317-6.317-6.317c-3.496,0-6.319,2.829-6.319,6.317
		c0,51.809,42.151,93.967,93.967,93.967c39.334,0,73.03-24.348,87.014-58.73l10.062,3.515c-15.438,38.536-53.083,65.88-97.075,65.88
		c-57.694,0-104.629-46.941-104.629-104.636H0c0,64.648,52.603,117.265,117.265,117.265c49.499,0,91.834-30.887,109.014-74.365
		l32.156,11.234c0.676,0.233,1.381,0.35,2.081,0.35c1.293,0,2.571-0.401,3.659-1.162c1.671-1.186,2.665-3.108,2.665-5.157v-60.527
		C266.835,117.573,264.007,114.743,260.526,114.743z M56.241,128.03c3.493,0,6.321-2.829,6.321-6.319
		c0-30.159,24.542-54.705,54.708-54.705c27.251,0,49.839,20.047,53.965,46.15l12.088-4.443
		c-6.072-30.931-33.37-54.349-66.053-54.349c-37.138,0-67.348,30.208-67.348,67.342C49.917,125.201,52.747,128.03,56.241,128.03z
		 M185.684,115.862l-11.887,4.392l1.661,4.483l11.883-4.392L185.684,115.862z M219.409,109.252l11.882-4.392l-1.651-4.483
		l-11.892,4.392L219.409,109.252z M170.021,133.845c-0.429,1.251,0.243,2.604,1.494,3.034l71.243,24.189
		c0.257,0.084,0.509,0.116,0.77,0.116c0.994,0,1.923-0.625,2.269-1.614c0.42-1.251-0.248-2.604-1.494-3.034l-71.247-24.194
		C171.799,131.932,170.446,132.599,170.021,133.845z"/>
</g>
<g>
</g>
<g>
</g>
<g>
</g>
<g>
</g>
<g>
</g>
<g>
</g>
<g>
</g>
<g>
</g>
<g>
</g>
<g>
</g>
<g>
</g>
<g>
</g>
<g>
</g>
<g>
</g>
<g>
</g>
</svg>
