<?xml version="1.0" encoding="iso-8859-1"?>
<!-- Generator: Adobe Illustrator 16.0.0, SVG Export Plug-In . SVG Version: 6.00 Build 0)  -->
<!DOCTYPE svg PUBLIC "-//W3C//DTD SVG 1.1//EN" "http://www.w3.org/Graphics/SVG/1.1/DTD/svg11.dtd">
<svg version="1.1" id="Capa_1" xmlns="http://www.w3.org/2000/svg" xmlns:xlink="http://www.w3.org/1999/xlink" x="0px" y="0px"
	 width="277.654px" height="277.654px" viewBox="0 0 277.654 277.654" style="enable-background:new 0 0 277.654 277.654;"
	 xml:space="preserve">
<g>
	<g>
		<path d="M231.208,138.832c0,14.337-3.192,28.072-9.483,40.822c-1.756,3.552-0.299,7.851,3.248,9.605
			c1.018,0.499,2.104,0.737,3.174,0.737c2.641,0,5.18-1.466,6.431-3.995c7.271-14.738,10.963-30.606,10.963-47.17
			c0-9.376-1.218-18.685-3.617-27.662c-1.026-3.822-4.946-6.077-8.783-5.073c-3.817,1.022-6.091,4.954-5.073,8.779
			C230.152,122.646,231.208,130.704,231.208,138.832z"/>
		<path d="M198.09,50.076c-17.558-11.747-38.046-17.961-59.267-17.961c-4.665,0-9.353,0.308-13.936,0.905
			c-3.927,0.511-6.695,4.109-6.179,8.032c0.511,3.925,4.114,6.681,8.035,6.184c3.976-0.516,8.041-0.784,12.085-0.784
			c18.365,0,36.104,5.376,51.292,15.543c1.223,0.817,2.613,1.209,3.985,1.209c2.31,0,4.583-1.113,5.964-3.183
			C202.271,56.733,201.385,52.278,198.09,50.076z"/>
		<path d="M174.236,224.184c-11.225,4.662-23.135,7.023-35.395,7.023c-0.004,0-0.009,0-0.014,0c-10.15,0-20.124-1.634-29.645-4.863
			c-3.762-1.269-7.817,0.747-9.089,4.495c-1.271,3.752,0.74,7.817,4.492,9.091c11.003,3.72,22.523,5.615,34.238,5.615
			c0.004,0,0.014,0,0.019,0c14.156,0,27.914-2.735,40.888-8.121c3.659-1.521,5.396-5.722,3.874-9.376
			C182.082,224.397,177.891,222.662,174.236,224.184z"/>
		<path d="M46.447,138.832c0-22.433,8.14-44.058,22.916-60.898c2.611-2.973,2.319-7.505-0.658-10.118
			c-2.968-2.614-7.504-2.317-10.118,0.66C41.512,87.93,32.11,112.916,32.11,138.827c0,18.789,4.957,37.271,14.328,53.438
			c1.328,2.297,3.738,3.585,6.207,3.585c1.221,0,2.458-0.312,3.584-0.971c3.428-1.988,4.595-6.376,2.611-9.801
			C50.734,171.095,46.447,155.102,46.447,138.832z"/>
		<path d="M172.57,211.96c1.195-0.551,1.718-1.969,1.167-3.174c-0.561-1.194-1.979-1.713-3.174-1.166
			c-9.979,4.615-20.656,6.953-31.736,6.953c-41.763,0-75.739-33.976-75.739-75.741c0-41.764,33.976-75.738,75.739-75.738
			c14.533,0,28.651,4.124,40.823,11.934c1.106,0.716,2.59,0.392,3.3-0.724c0.714-1.108,0.392-2.59-0.719-3.302
			c-12.951-8.301-27.956-12.688-43.409-12.688c-44.398,0-80.519,36.118-80.519,80.517c0,44.397,36.121,80.521,80.519,80.521
			C150.607,219.353,161.957,216.865,172.57,211.96z"/>
		<path d="M193.04,151.139c-2.521-0.808-5.204,0.588-6.007,3.099c-6.716,21.044-26.093,35.181-48.206,35.181
			c-7.966,0-15.585-1.797-22.646-5.339c-2.366-1.186-5.239-0.224-6.415,2.133c-1.186,2.361-0.229,5.231,2.133,6.417
			c8.405,4.21,17.467,6.348,26.934,6.348c26.29,0,49.317-16.812,57.312-41.836C196.941,154.63,195.556,151.941,193.04,151.139z"/>
		<path d="M146.626,88.833c2.604,0.387,5.055-1.386,5.456-3.995s-1.382-5.052-3.995-5.454c-3.048-0.474-6.163-0.707-9.26-0.707
			c-33.166,0-60.149,26.983-60.149,60.149c0,2.642,2.14,4.779,4.779,4.779c2.637,0,4.779-2.138,4.779-4.779
			c0-27.896,22.696-50.591,50.591-50.591C141.437,88.236,144.064,88.437,146.626,88.833z"/>
		<circle cx="138.827" cy="138.832" r="31.858"/>
		<path d="M138.827,0C62.275,0,0,62.277,0,138.827c0,76.549,62.275,138.827,138.827,138.827c76.55,0,138.827-62.278,138.827-138.827
			C277.654,62.282,215.377,0,138.827,0z M138.827,263.326c-68.646,0-124.489-55.847-124.489-124.494
			c0-68.646,55.844-124.495,124.489-124.495c68.644,0,124.49,55.844,124.49,124.49C263.317,207.479,207.471,263.326,138.827,263.326
			z"/>
	</g>
</g>
<g>
</g>
<g>
</g>
<g>
</g>
<g>
</g>
<g>
</g>
<g>
</g>
<g>
</g>
<g>
</g>
<g>
</g>
<g>
</g>
<g>
</g>
<g>
</g>
<g>
</g>
<g>
</g>
<g>
</g>
</svg>
