<?xml version="1.0" encoding="iso-8859-1"?>
<!-- Generator: Adobe Illustrator 16.0.0, SVG Export Plug-In . SVG Version: 6.00 Build 0)  -->
<!DOCTYPE svg PUBLIC "-//W3C//DTD SVG 1.1//EN" "http://www.w3.org/Graphics/SVG/1.1/DTD/svg11.dtd">
<svg version="1.1" id="Capa_1" xmlns="http://www.w3.org/2000/svg" xmlns:xlink="http://www.w3.org/1999/xlink" x="0px" y="0px"
	 width="274.368px" height="274.368px" viewBox="0 0 274.368 274.368" style="enable-background:new 0 0 274.368 274.368;"
	 xml:space="preserve">
<g>
	<g>
		<path d="M109.429,271.554l26.351-25.113c-10.202-0.131-20.062-1.661-29.405-4.396l-22.6,21.534
			C91.946,267.036,100.529,269.72,109.429,271.554z"/>
		<path d="M147.34,77.03l0.004,38.219h46.778C186.473,95.425,168.831,80.633,147.34,77.03z"/>
		<path d="M198.253,137.185c0-5.965-0.896-11.715-2.492-17.161h-53.2l-0.005-43.64c-1.773-0.152-3.561-0.271-5.376-0.271
			c-28.168,0-51.809,19.09-58.864,45.014h63.643v76.878C173.452,195.564,198.253,169.294,198.253,137.185z"/>
		<path d="M137.184,125.911H77.198c-0.684,3.659-1.085,7.416-1.085,11.274c0,33.724,27.342,61.063,61.066,61.063v-72.337H137.184z"
			/>
		<path d="M246.473,137.185c0,1.287-0.056,2.566-0.103,3.846l26.346-25.103c-1.405-8.991-3.663-17.693-6.721-26.019l-22.603,21.539
			C245.391,119.704,246.473,128.314,246.473,137.185z"/>
		<path d="M142.819,246.328L115.253,272.6c7.145,1.147,14.461,1.769,21.93,1.769c3.995,0,7.939-0.21,11.85-0.541l46.266-44.095
			C179.948,239.384,162.045,245.349,142.819,246.328z"/>
		<path d="M273.477,121.794l-27.55,26.254c-1.886,19.089-8.694,36.716-19.116,51.637l46.283-44.113
			c0.812-6.016,1.27-12.144,1.27-18.384C274.363,131.98,274.046,126.847,273.477,121.794z"/>
		<path d="M271.843,163.376L156.884,272.931C214.69,264.618,260.834,220.268,271.843,163.376z"/>
		<path d="M79.076,261.45l22.118-21.077c-42.673-14.879-73.296-55.444-73.296-103.188c0-0.589,0.037-1.177,0.046-1.765
			l-10.419,0.233c0-66.088,53.576-119.662,119.659-119.662v11.903c49.588,0,91.442,33.039,104.809,78.297l22.113-21.081
			C243.598,35.178,194.51,0,137.184,0C61.421,0,0.004,61.421,0.004,137.185C0.004,192.167,32.371,239.57,79.076,261.45z"/>
		<path d="M231.837,161.238l-73.726,70.268C193.88,223.693,222.335,196.344,231.837,161.238z"/>
		<path d="M56.747,89.293l-2.168-1.295c-8.847,14.825-13.521,31.834-13.521,49.187h2.389c0,43.674,30.075,80.366,70.573,90.718
			l8.324-7.934c-39.351-7.038-69.339-41.443-69.339-82.784h2.39c0-14.767,3.977-29.24,11.493-41.841l-1.939-1.162
			c7.752-12.975,18.825-23.758,32.128-30.997l1.125,2.075c12.855-6.984,27.79-10.405,42.274-9.803l0.091-2.29
			c15.635,0.628,30.187,5.477,42.518,13.53l-1.261,1.93c12.34,8.058,22.3,19.289,28.796,32.49l2.03-0.999
			c3.995,8.1,6.734,16.918,7.943,26.208l8.326-7.934c-1.629-7.895-4.224-15.441-7.7-22.491l2.263-1.113
			c-7.63-15.506-19.33-28.702-33.826-38.165l-1.358,2.079c-13.726-8.97-29.93-14.376-47.348-15.07l0.096-2.504
			c-17.019-0.639-34.576,3.328-49.684,11.533l1.158,2.128C77.704,62.849,65.378,74.846,56.747,89.293z"/>
		<path d="M235.337,135.653h-4.489c-0.07-3.937-0.401-7.804-0.934-11.603l-8.858,8.445c0.057,1.055,0.215,2.088,0.233,3.157H221
			c0,13.749-3.393,26.705-9.287,38.162l22.023-20.987C234.726,147.237,235.337,141.524,235.337,135.653z"/>
		<path d="M149.71,232.906l22.015-20.983c-10.547,4.798-22.215,7.537-34.545,7.537v1.899c-3.001,0-5.955-0.173-8.875-0.476
			l-8.732,8.316c5.712,1.092,11.586,1.718,17.611,1.718v2.879C141.438,233.802,145.599,233.438,149.71,232.906z"/>
	</g>
</g>
<g>
</g>
<g>
</g>
<g>
</g>
<g>
</g>
<g>
</g>
<g>
</g>
<g>
</g>
<g>
</g>
<g>
</g>
<g>
</g>
<g>
</g>
<g>
</g>
<g>
</g>
<g>
</g>
<g>
</g>
</svg>
