<?xml version="1.0" encoding="iso-8859-1"?>
<!-- Generator: Adobe Illustrator 19.0.0, SVG Export Plug-In . SVG Version: 6.00 Build 0)  -->
<svg version="1.1" id="Capa_1" xmlns="http://www.w3.org/2000/svg" xmlns:xlink="http://www.w3.org/1999/xlink" x="0px" y="0px"
	 viewBox="0 0 512 512" style="enable-background:new 0 0 512 512;" xml:space="preserve">
<g>
	<g>
		<rect x="119.467" y="145.067" width="34.133" height="187.733"/>
	</g>
</g>
<g>
	<g>
		<rect x="247.467" y="196.267" width="68.267" height="85.333"/>
	</g>
</g>
<g>
	<g>
		<rect x="409.6" y="145.067" width="34.133" height="187.733"/>
	</g>
</g>
<g>
	<g>
		<path d="M503.467,85.333h-435.2V68.267c0-4.71-3.823-8.533-8.533-8.533h-51.2C3.823,59.733,0,63.556,0,68.267
			S3.823,76.8,8.533,76.8H51.2v17.067V384v59.733c0,4.71,3.823,8.533,8.533,8.533s8.533-3.823,8.533-8.533v-51.2H102.4v51.2
			c0,4.71,3.823,8.533,8.533,8.533h341.333c4.71,0,8.533-3.823,8.533-8.533v-51.2h42.667c4.71,0,8.533-3.823,8.533-8.533V93.867
			C512,89.156,508.177,85.333,503.467,85.333z M221.867,247.467c-4.71,0-8.533-3.823-8.533-8.533c0-4.71,3.823-8.533,8.533-8.533
			h8.533v-17.067h-8.533c-4.71,0-8.533-3.823-8.533-8.533s3.823-8.533,8.533-8.533h8.533v-8.533c0-4.71,3.823-8.533,8.533-8.533
			h8.533v-8.533c0-4.71,3.823-8.533,8.533-8.533c4.71,0,8.533,3.823,8.533,8.533v8.533h34.133v-8.533
			c0-4.71,3.823-8.533,8.533-8.533s8.533,3.823,8.533,8.533v8.533h8.533c4.71,0,8.533,3.823,8.533,8.533v8.533h8.533
			c4.71,0,8.533,3.823,8.533,8.533s-3.823,8.533-8.533,8.533H332.8V230.4h8.533c4.71,0,8.533,3.823,8.533,8.533
			c0,4.71-3.823,8.533-8.533,8.533H332.8v17.067h8.533c4.71,0,8.533,3.823,8.533,8.533s-3.823,8.533-8.533,8.533H332.8v8.533
			c0,4.71-3.823,8.533-8.533,8.533h-8.533v8.533c0,4.71-3.823,8.533-8.533,8.533s-8.533-3.823-8.533-8.533v-8.533h-34.133v8.533
			c0,4.71-3.823,8.533-8.533,8.533c-4.71,0-8.533-3.823-8.533-8.533v-8.533h-8.533c-4.71,0-8.533-3.823-8.533-8.533V281.6h-8.533
			c-4.71,0-8.533-3.823-8.533-8.533s3.823-8.533,8.533-8.533h8.533v-17.067H221.867z M102.4,341.333V332.8h-8.533
			c-4.71,0-8.533-3.823-8.533-8.533s3.823-8.533,8.533-8.533h8.533v-17.067h-8.533c-4.71,0-8.533-3.823-8.533-8.533
			c0-4.71,3.823-8.533,8.533-8.533h8.533v-17.067h-8.533c-4.71,0-8.533-3.823-8.533-8.533c0-4.71,3.823-8.533,8.533-8.533h8.533
			V230.4h-8.533c-4.71,0-8.533-3.823-8.533-8.533c0-4.71,3.823-8.533,8.533-8.533h8.533v-17.067h-8.533
			c-4.71,0-8.533-3.823-8.533-8.533s3.823-8.533,8.533-8.533h8.533v-17.067h-8.533c-4.71,0-8.533-3.823-8.533-8.533
			c0-4.71,3.823-8.533,8.533-8.533h8.533v-8.533c0-4.71,3.823-8.533,8.533-8.533h51.2c4.71,0,8.533,3.823,8.533,8.533v8.533h8.533
			c4.71,0,8.533,3.823,8.533,8.533c0,4.71-3.823,8.533-8.533,8.533h-8.533V179.2h8.533c4.71,0,8.533,3.823,8.533,8.533
			s-3.823,8.533-8.533,8.533h-8.533v17.067h8.533c4.71,0,8.533,3.823,8.533,8.533c0,4.71-3.823,8.533-8.533,8.533h-8.533v17.067
			h8.533c4.71,0,8.533,3.823,8.533,8.533c0,4.71-3.823,8.533-8.533,8.533h-8.533V281.6h8.533c4.71,0,8.533,3.823,8.533,8.533
			c0,4.71-3.823,8.533-8.533,8.533h-8.533v17.067h8.533c4.71,0,8.533,3.823,8.533,8.533s-3.823,8.533-8.533,8.533h-8.533v8.533
			c0,4.71-3.823,8.533-8.533,8.533h-51.2C106.223,349.867,102.4,346.044,102.4,341.333z M443.733,435.2h-17.067v-17.067
			c0-4.71-3.823-8.533-8.533-8.533s-8.533,3.823-8.533,8.533V435.2h-17.067v-17.067c0-4.71-3.823-8.533-8.533-8.533
			c-4.71,0-8.533,3.823-8.533,8.533V435.2H358.4v-17.067c0-4.71-3.823-8.533-8.533-8.533s-8.533,3.823-8.533,8.533V435.2h-17.067
			v-17.067c0-4.71-3.823-8.533-8.533-8.533s-8.533,3.823-8.533,8.533V435.2h-17.067v-17.067c0-4.71-3.823-8.533-8.533-8.533
			s-8.533,3.823-8.533,8.533V435.2H256v-17.067c0-4.71-3.823-8.533-8.533-8.533s-8.533,3.823-8.533,8.533V435.2h-17.067v-17.067
			c0-4.71-3.823-8.533-8.533-8.533c-4.71,0-8.533,3.823-8.533,8.533V435.2h-17.067v-17.067c0-4.71-3.823-8.533-8.533-8.533
			s-8.533,3.823-8.533,8.533V435.2H153.6v-17.067c0-4.71-3.823-8.533-8.533-8.533c-4.71,0-8.533,3.823-8.533,8.533V435.2h-17.067
			v-42.667h324.267V435.2z M469.333,179.2c4.71,0,8.533,3.823,8.533,8.533s-3.823,8.533-8.533,8.533H460.8v17.067h8.533
			c4.71,0,8.533,3.823,8.533,8.533c0,4.71-3.823,8.533-8.533,8.533H460.8v17.067h8.533c4.71,0,8.533,3.823,8.533,8.533
			c0,4.71-3.823,8.533-8.533,8.533H460.8V281.6h8.533c4.71,0,8.533,3.823,8.533,8.533c0,4.71-3.823,8.533-8.533,8.533H460.8v17.067
			h8.533c4.71,0,8.533,3.823,8.533,8.533s-3.823,8.533-8.533,8.533H460.8v8.533c0,4.71-3.823,8.533-8.533,8.533h-51.2
			c-4.71,0-8.533-3.823-8.533-8.533V332.8H384c-4.71,0-8.533-3.823-8.533-8.533s3.823-8.533,8.533-8.533h8.533v-17.067H384
			c-4.71,0-8.533-3.823-8.533-8.533c0-4.71,3.823-8.533,8.533-8.533h8.533v-17.067H384c-4.71,0-8.533-3.823-8.533-8.533
			c0-4.71,3.823-8.533,8.533-8.533h8.533V230.4H384c-4.71,0-8.533-3.823-8.533-8.533c0-4.71,3.823-8.533,8.533-8.533h8.533v-17.067
			H384c-4.71,0-8.533-3.823-8.533-8.533S379.29,179.2,384,179.2h8.533v-17.067H384c-4.71,0-8.533-3.823-8.533-8.533
			c0-4.71,3.823-8.533,8.533-8.533h8.533v-8.533c0-4.71,3.823-8.533,8.533-8.533h51.2c4.71,0,8.533,3.823,8.533,8.533v8.533h8.533
			c4.71,0,8.533,3.823,8.533,8.533c0,4.71-3.823,8.533-8.533,8.533H460.8V179.2H469.333z"/>
	</g>
</g>
<g>
</g>
<g>
</g>
<g>
</g>
<g>
</g>
<g>
</g>
<g>
</g>
<g>
</g>
<g>
</g>
<g>
</g>
<g>
</g>
<g>
</g>
<g>
</g>
<g>
</g>
<g>
</g>
<g>
</g>
</svg>
