<svg xmlns="http://www.w3.org/2000/svg" width="100%" height="100%" viewBox="0 0 275.078 275.077">
    <!--<path d="M99.582,64.896c11.355-5.946,24.25-9.353,37.955-9.353c45.282,0,81.993,36.707,81.993,81.994-->
			<!--c0,29.111-15.21,54.612-38.078,69.164l13.077,22.649c30.653-19.069,51.081-53.051,51.081-91.813-->
			<!--c0-59.685-48.389-108.069-108.073-108.069c-18.456,0-35.825,4.635-51.021,12.792L99.582,64.896z"/>-->
    <!--<path d="M130.368,13.763V0.187C82.74,2.632,41.511,29.309,18.776,68.13l11.737,6.777C50.911,40.139,87.757,16.195,130.368,13.763z-->
			<!--"/>-->
    <!--<path d="M130.368,274.891V261.31c-65.143-3.715-116.824-57.704-116.824-123.773c0-17.735,3.752-34.581,10.461-49.835L12.2,80.885-->
			<!--C4.378,98.167,0,117.335,0,137.537C0.004,211.092,57.746,271.157,130.368,274.891z"/>-->
    <!--<path d="M91.267,152.143H75.332c6.615,28.264,31.925,49.335,62.205,49.335c30.282,0,55.592-21.071,62.205-49.34h-15.934-->
			<!--c-6.197,19.657-24.567,33.911-46.271,33.911C115.834,186.053,97.47,171.795,91.267,152.143z"/>-->
    <!--<path d="M201.487,137.537c0-35.318-28.632-63.944-63.946-63.944c-35.316,0-63.943,28.63-63.943,63.944-->
			<!--c0,0.091,0.014,0.177,0.014,0.268h15.427c0-0.091-0.014-0.177-0.014-0.268c0-26.796,21.721-48.517,48.517-48.517-->
			<!--c26.796,0,48.517,21.72,48.517,48.517c0,0.091-0.01,0.177-0.015,0.268h15.435C201.468,137.714,201.487,137.627,201.487,137.537z"-->
    <!--/>-->
    <!--<path d="M29.473,137.537c0,19.426,5.152,37.647,14.127,53.398l22.609-13.059c-6.758-11.915-10.662-25.664-10.662-40.344-->
			<!--c0-26.427,12.56-49.87,31.972-64.865L74.363,49.879C47.18,69.512,29.473,101.446,29.473,137.537z"/>-->
    <!--<path d="M203.293,16.746C185.722,7.164,165.859,1.27,144.708,0.187v13.577c18.678,1.066,36.244,6.28,51.81,14.715L203.293,16.746z"/>-->
    <!--<path d="M215.502,24.264l-6.795,11.775c31.937,22.423,52.826,59.508,52.826,101.498c0,66.069-51.683,120.058-116.826,123.768-->
			<!--v13.577c72.629-3.725,130.37-63.795,130.37-137.35C275.078,90.534,251.476,49.072,215.502,24.264z"/>-->
    <!--<path d="M80.761,229.443l13.028-22.565c-7.364-4.653-13.94-10.44-19.471-17.129L51.508,202.92-->
			<!--C59.529,213.458,69.465,222.442,80.761,229.443z"/>-->
    <!--<path d="M181.867,236.089l-13.124-22.738c-9.623,3.968-20.152,6.18-31.206,6.18c-10.973,0-21.429-2.166-30.992-6.072-->
			<!--l-13.124,22.729c13.472,6.044,28.392,9.423,44.116,9.423C153.341,245.609,168.341,242.184,181.867,236.089z"/>-->
    <path d="M137.537,112.486c14.639,0,26.512,11.869,26.512,26.509s-11.873,26.509-26.512,26.509
			c-14.641,0-26.509-11.868-26.509-26.509S122.896,112.486,137.537,112.486z"/>
</svg>
