<?xml version="1.0" encoding="iso-8859-1"?>
<!-- Generator: Adobe Illustrator 16.0.0, SVG Export Plug-In . SVG Version: 6.00 Build 0)  -->
<!DOCTYPE svg PUBLIC "-//W3C//DTD SVG 1.1//EN" "http://www.w3.org/Graphics/SVG/1.1/DTD/svg11.dtd">
<svg version="1.1" id="Capa_1" xmlns="http://www.w3.org/2000/svg" xmlns:xlink="http://www.w3.org/1999/xlink" x="0px" y="0px"
	 width="245.557px" height="245.558px" viewBox="0 0 245.557 245.558" style="enable-background:new 0 0 245.557 245.558;"
	 xml:space="preserve">
<g>
	<g>
		<path d="M72.771,210.392l-15.642,26.187c-1.354,2.264-0.616,5.199,1.654,6.553c0.763,0.458,1.61,0.677,2.445,0.677
			c1.629,0,3.211-0.831,4.105-2.329l16.139-27.022c12.746,5.256,26.687,8.173,41.306,8.173c14.627,0,28.581-2.913,41.341-8.173
			l16.134,28.67c0.878,1.56,2.497,2.432,4.168,2.432c0.794,0,1.597-0.2,2.334-0.611c2.301-1.297,3.117-4.209,1.819-6.511
			l-32.706-58.109c24.39-12.2,41.205-37.351,41.205-66.417c0-21.238-9.007-40.363-23.354-53.903l30.471-51.023
			c1.354-2.263,0.616-5.199-1.651-6.552c-2.269-1.356-5.199-0.616-6.553,1.654l-12.014,20.106
			C166.523,12.248,145.47,5.189,122.77,5.189c-16.809,0-32.737,3.838-46.953,10.676l7.096,12.613
			c12.13-5.682,25.601-8.952,39.857-8.952c20.012,0,38.55,6.319,53.848,16.991l-41.247,69.052
			c-2.707-4.086-7.339-6.786-12.601-6.786c-4.053,0-7.708,1.619-10.433,4.219l-7.554-13.427c5.036-3.738,11.25-5.974,17.987-5.974
			c3.073,0,6.04,0.466,8.839,1.318l2.482-4.191c-3.556-1.221-7.355-1.907-11.317-1.907c-7.588,0-14.603,2.446-20.349,6.557
			L90.191,63.647c9.39-6.107,20.57-9.691,32.579-9.691c8.517,0,16.605,1.811,23.952,5.022l7.322-12.363
			c-9.516-4.443-20.092-6.996-31.274-6.996c-14.566,0-28.124,4.277-39.605,11.546L55.748,2.431c-1.29-2.298-4.195-3.106-6.503-1.82
			c-2.298,1.295-3.118,4.209-1.822,6.511l27.939,49.634c-16.412,13.64-26.882,34.188-26.882,57.144
			c0,24.512,11.985,46.223,30.348,59.762l7.336-12.386c-14.171-10.978-23.347-28.105-23.347-47.376
			c0-17.583,7.656-33.367,19.747-44.347l12.722,22.603c-4.739,5.983-7.598,13.527-7.598,21.744c0,10.242,4.434,19.434,11.451,25.86
			l2.48-4.19c-5.64-5.513-9.152-13.183-9.152-21.67c0-6.384,1.993-12.307,5.381-17.2l20.775,36.919l-38.454,64.387
			c-30.672-15.602-51.777-47.403-51.777-84.105H14.054C14.054,155.824,37.922,192.26,72.771,210.392z M166.122,72.727
			c10.24,10.748,16.615,25.19,16.615,41.178c0,23.714-13.875,44.197-33.902,53.919l-12.213-21.688
			c12.479-5.386,21.244-17.805,21.244-32.235c0-6.781-1.979-13.082-5.33-18.442L166.122,72.727z M149.745,100.155
			c2.114,4.132,3.342,8.792,3.342,13.749c0,12.644-7.794,23.499-18.817,28.04l-4.602-8.177L149.745,100.155z M114.817,107.37
			c1.901-2.312,4.742-3.817,7.962-3.817c4.478,0,8.271,2.877,9.703,6.863l-8.217,13.754L114.817,107.37z M124.538,144.133
			c-0.364,0.019-0.726,0.047-1.094,0.052l0.579-0.967L124.538,144.133z M120.676,148.818c0.702,0.042,1.381,0.183,2.098,0.183
			c1.473,0,2.905-0.121,4.331-0.294l12.751,22.649c-5.428,1.609-11.146,2.511-17.082,2.511c-5.463,0-10.713-0.821-15.737-2.208
			L120.676,148.818z M99.467,184.33c7.336,2.47,15.154,3.869,23.312,3.869c8.494,0,16.624-1.507,24.231-4.14l9.959,17.693
			c-10.612,4.172-22.112,6.538-34.19,6.538c-11.929,0-23.303-2.314-33.815-6.37L99.467,184.33z"/>
		<path d="M175.167,192.362l7.052,12.518c29.646-19.438,49.285-52.948,49.285-90.976h-14.338
			C217.166,146.578,200.467,175.411,175.167,192.362z"/>
	</g>
</g>
<g>
</g>
<g>
</g>
<g>
</g>
<g>
</g>
<g>
</g>
<g>
</g>
<g>
</g>
<g>
</g>
<g>
</g>
<g>
</g>
<g>
</g>
<g>
</g>
<g>
</g>
<g>
</g>
<g>
</g>
</svg>
