<?xml version="1.0" encoding="iso-8859-1"?>
<!-- Generator: Adobe Illustrator 16.0.0, SVG Export Plug-In . SVG Version: 6.00 Build 0)  -->
<!DOCTYPE svg PUBLIC "-//W3C//DTD SVG 1.1//EN" "http://www.w3.org/Graphics/SVG/1.1/DTD/svg11.dtd">
<svg version="1.1" id="Capa_1" xmlns="http://www.w3.org/2000/svg" xmlns:xlink="http://www.w3.org/1999/xlink" x="0px" y="0px"
	 width="278.503px" height="278.503px" viewBox="0 0 278.503 278.503" style="enable-background:new 0 0 278.503 278.503;"
	 xml:space="preserve">
<g>
	<g>
		<path d="M139.251,47.457c-50.619,0-91.797,41.18-91.797,91.799c0,2.203,1.788,3.995,3.991,3.995c2.205,0,3.99-1.792,3.99-3.995
			c0-46.22,37.603-83.818,83.816-83.818c46.214,0,83.816,37.598,83.816,83.818c0,2.203,1.787,3.995,3.99,3.995
			s3.99-1.792,3.99-3.995C231.048,88.637,189.875,47.457,139.251,47.457z"/>
		<path d="M139.251,99.339c-22.003,0-39.91,17.908-39.91,39.917c0,22.005,17.903,39.913,39.91,39.913
			c22.006,0,39.908-17.907,39.908-39.913C179.16,117.247,161.257,99.339,139.251,99.339z M139.251,104.662
			c6.133,0,11.892,1.626,16.895,4.441l-7.873,12.865c-2.702-1.414-5.766-2.222-9.021-2.222c-0.1,0-0.2,0.014-0.296,0.014
			l-1.683-14.993C137.929,104.725,138.584,104.662,139.251,104.662z M139.251,173.844c-19.067,0-34.585-15.518-34.585-34.587
			c0-7.941,2.714-15.243,7.231-21.088l11.096,10.319c-2.051,3.087-3.25,6.786-3.25,10.76c0,10.763,8.751,19.518,19.508,19.518
			c0.101,0,0.191-0.019,0.292-0.019l1.683,14.991C140.565,173.783,139.921,173.844,139.251,173.844z M139.251,153.444
			c-7.827,0-14.192-6.366-14.192-14.188c0-7.832,6.366-14.197,14.192-14.197c7.827,0,14.192,6.371,14.192,14.197
			C153.444,147.078,147.079,153.444,139.251,153.444z M166.578,160.38l-11.089-10.314c2.067-3.099,3.276-6.814,3.276-10.818
			c0-5.589-2.376-10.627-6.156-14.188l7.962-12.998c8.069,6.335,13.273,16.152,13.273,27.186
			C173.839,147.219,171.114,154.532,166.578,160.38z"/>
		<path d="M139.251,278.503c76.909,0,139.252-62.343,139.252-139.247C278.503,62.348,216.161,0,139.251,0
			C62.343,0,0,62.343,0,139.256C0,216.16,62.343,278.503,139.251,278.503z M141.915,243.846v-33.804
			c4.879-0.182,9.626-0.854,14.194-1.97l10.86,32.105C158.957,242.371,150.565,243.631,141.915,243.846z M139.251,187.183
			c-26.472,0-47.928-21.454-47.928-47.926c0-26.474,21.457-47.933,47.928-47.933s47.932,21.459,47.932,47.933
			C187.183,165.729,165.723,187.183,139.251,187.183z M172.061,238.638l-10.832-32.026c4.686-1.525,9.157-3.528,13.357-5.955
			l19.765,27.583C187.42,232.532,179.944,236.033,172.061,238.638z M198.803,225.299l-19.681-27.471
			c18.696-12.76,30.98-34.237,30.98-58.581c0-39.129-31.728-70.854-70.852-70.854c-39.126,0-70.849,31.725-70.849,70.854
			c0,38.242,30.294,69.386,68.188,70.785v33.804C80.02,242.427,34.59,196.162,34.59,139.256
			c0-57.806,46.859-104.659,104.657-104.659c57.806,0,104.655,46.857,104.655,104.659
			C243.911,174.922,226.05,206.406,198.803,225.299z M139.251,15.08c68.467,0,124.168,55.704,124.168,124.177
			c0,1.465-1.186,2.661-2.66,2.661c-1.471,0-2.66-1.195-2.66-2.661c0-65.538-53.317-118.854-118.852-118.854
			c-65.535,0-118.85,53.316-118.85,118.854c0,65.536,53.314,118.852,118.85,118.852c1.472,0,2.663,1.186,2.663,2.66
			c0,1.47-1.19,2.66-2.663,2.66c-68.464,0-124.17-55.706-124.17-124.172C15.077,70.783,70.788,15.08,139.251,15.08z"/>
	</g>
</g>
<g>
</g>
<g>
</g>
<g>
</g>
<g>
</g>
<g>
</g>
<g>
</g>
<g>
</g>
<g>
</g>
<g>
</g>
<g>
</g>
<g>
</g>
<g>
</g>
<g>
</g>
<g>
</g>
<g>
</g>
</svg>
