<svg xmlns="http://www.w3.org/2000/svg" viewBox="0 0 24 24" width="100%" height="100%">
    <path d="M12.74 23.76L12.39 23.94L12 24L11.61 23.94L11.26 23.76L10.98 23.49L10.79 23.14L13.21 23.14L13.02 23.49L12.74 23.76ZM14.11 22.02L14.02 22.16L13.88 22.25L13.71 22.29L10.29 22.29L10.17 22.26L10.06 22.18L9.96 22.04L9.86 21.86L9.86 20.57L14.14 20.57L14.14 21.86L14.11 22.02ZM5.8 17.88L5.98 18.02L6.12 18.2L6.2 18.41L6.23 18.63L6.2 18.85L6.12 19.05L5.98 19.23L4.46 20.75L4.18 20.93L3.86 20.99L3.54 20.93L3.25 20.75L3.14 20.62L3.07 20.47L3.02 20.31L3 20.14L3.02 19.97L3.07 19.81L3.14 19.67L3.25 19.54L4.77 18.02L4.95 17.88L5.15 17.8L5.37 17.77L5.59 17.8L5.8 17.88ZM18.98 17.89L19.23 18.02L20.75 19.54L20.86 19.67L20.93 19.81L20.98 19.97L21 20.14L20.98 20.31L20.93 20.47L20.86 20.62L20.75 20.75L20.46 20.93L20.14 20.99L19.82 20.93L19.54 20.75L18.02 19.23L17.88 19.05L17.8 18.85L17.77 18.63L17.8 18.41L17.88 18.2L18.02 18.02L18.2 17.88L18.41 17.8L18.57 17.78L18.76 17.81L18.98 17.89ZM14.47 6.79L15.51 7.46L16.38 8.33L17.04 9.37L17.47 10.55L17.62 11.84L17.54 12.52L17.51 12.8L17.49 12.91L17.47 13.12L17.42 13.27L17.36 13.51L17.12 14.2L16.79 14.85L16.37 15.45L15.87 16L15.54 16.36L15.25 16.76L15.01 17.18L14.82 17.63L14.69 18.09L14.6 18.58L14.57 19.07L14.57 19.71L9.43 19.71L9.43 19.07L9.39 18.57L9.3 18.08L9.16 17.61L8.96 17.15L8.71 16.72L8.42 16.32L8.07 15.95L7.46 15.23L6.98 14.42L6.65 13.55L6.6 13.31L6.53 13.12L6.49 12.79L6.47 12.65L6.46 12.5L6.38 11.84L6.53 10.55L6.96 9.37L7.62 8.33L8.49 7.46L9.53 6.79L10.71 6.37L12 6.22L13.29 6.37L14.47 6.79ZM3.61 11.39L3.79 11.67L3.86 12L3.79 12.33L3.61 12.61L3.33 12.79L3 12.86L0.86 12.86L0.52 12.79L0.25 12.61L0.07 12.33L0 12L0.07 11.67L0.25 11.39L0.52 11.21L0.86 11.14L3 11.14L3.33 11.21L3.61 11.39ZM23.75 11.39L23.93 11.67L24 12L23.93 12.33L23.75 12.61L23.48 12.79L23.14 12.86L21 12.86L20.67 12.79L20.39 12.61L20.21 12.33L20.14 12L20.21 11.67L20.39 11.39L20.67 11.21L21 11.14L23.14 11.14L23.48 11.21L23.75 11.39ZM20.57 3.12L20.75 3.25L20.88 3.43L20.97 3.64L21 3.86L20.97 4.08L20.89 4.28L20.75 4.46L19.23 5.98L18.95 6.16L18.63 6.22L18.31 6.16L18.02 5.98L17.91 5.85L17.84 5.7L17.79 5.54L17.77 5.37L17.79 5.2L17.84 5.04L17.91 4.9L18.02 4.77L19.54 3.25L19.72 3.11L19.92 3.03L20.14 3L20.36 3.03L20.57 3.12ZM4.19 3.07L4.33 3.14L4.46 3.25L5.98 4.77L6.09 4.9L6.16 5.04L6.21 5.2L6.23 5.37L6.21 5.54L6.16 5.7L6.09 5.85L5.98 5.98L5.78 6.1L5.51 6.14L5.17 6.1L4.77 5.98L3.25 4.46L3.14 4.33L3.07 4.19L3.02 4.03L3 3.86L3.02 3.69L3.07 3.53L3.14 3.38L3.25 3.25L3.38 3.14L3.53 3.07L3.69 3.02L3.86 3L4.03 3.02L4.19 3.07ZM12.61 0.25L12.79 0.52L12.86 0.86L12.86 3L12.79 3.33L12.61 3.61L12.33 3.79L12 3.86L11.67 3.79L11.39 3.61L11.21 3.33L11.14 3L11.14 0.86L11.21 0.52L11.39 0.25L11.67 0.07L12 0L12.33 0.07L12.61 0.25Z"/>
</svg>