<svg xmlns="http://www.w3.org/2000/svg" viewBox="0 0 24 24" width="24" height="24">
    <path d="M23.95 21.87L23.79 22.37L23.54 22.82L23.21 23.22L22.92 23.45L22.5 23.66L21.98 23.84L21.33 24L18.66 24L24 18.66L24 21.33L23.95 21.87ZM12.16 24L8.39 24L24 8.39L24 12.16L12.16 24ZM22.42 0.25L22.61 0.34L22.8 0.45L22.97 0.58L23.13 0.72L23.28 0.87L23.42 1.03L23.55 1.2L23.66 1.39L23.75 1.58L23.83 1.78L23.9 1.99L1.99 23.9L1.88 23.87L1.78 23.84L1.68 23.8L1.58 23.76L1.48 23.71L1.38 23.66L1.29 23.61L1.2 23.55L1.11 23.49L1.03 23.43L0.94 23.36L0.86 23.29L0.79 23.22L0.78 23.21L0.71 23.14L0.64 23.06L0.57 22.97L0.51 22.89L0.45 22.8L0.39 22.71L0.34 22.62L0.29 22.52L0.24 22.42L0.2 22.32L0.16 22.22L0.13 22.12L0.1 22.01L22.01 0.1L22.22 0.17L22.42 0.25ZM0 11.84L11.84 0L15.61 0L0 15.61L0 11.84ZM0 2.67L0.17 1.95L0.67 1.27L1.5 0.62L2.67 0L5.34 0L0 5.34L0 2.67Z"/>
</svg>