<?xml version="1.0" encoding="iso-8859-1"?>
<!-- Generator: Adobe Illustrator 19.0.0, SVG Export Plug-In . SVG Version: 6.00 Build 0)  -->
<svg version="1.1" id="Capa_1" xmlns="http://www.w3.org/2000/svg" xmlns:xlink="http://www.w3.org/1999/xlink" x="0px" y="0px"
	 viewBox="0 0 512.002 512.002" style="enable-background:new 0 0 512.002 512.002;" xml:space="preserve">
<g>
	<g>
		<polygon points="0.001,332.002 0.001,452 106.001,512.002 106.001,392.002 		"/>
	</g>
</g>
<g>
	<g>
		<polygon points="136.001,392.002 136.001,512.002 241.001,452.002 241.001,332.002 		"/>
	</g>
</g>
<g>
	<g>
		<polygon points="271.001,332.002 271.001,452.002 376.001,512.002 376.001,392.002 		"/>
	</g>
</g>
<g>
	<g>
		<polygon points="406.001,392.002 406.001,512.002 512.001,452 512.001,332.002 		"/>
	</g>
</g>
<g>
	<g>
		<polygon points="391.001,242.002 275.247,299.878 391.001,366.028 507.755,299.878 		"/>
	</g>
</g>
<g>
	<g>
		<polygon points="256.003,0 255.999,0 140.247,57.878 256.001,124.028 371.755,57.878 		"/>
	</g>
</g>
<g>
	<g>
		<polygon points="136.001,90.002 136.001,215.957 241.001,268.457 241.001,150.002 		"/>
	</g>
</g>
<g>
	<g>
		<polygon points="121.001,242.002 4.247,299.878 121.001,366.028 236.755,299.878 		"/>
	</g>
</g>
<g>
	<g>
		<polygon points="271.001,150.002 271.001,268.457 376.001,215.957 376.001,90.002 		"/>
	</g>
</g>
<g>
</g>
<g>
</g>
<g>
</g>
<g>
</g>
<g>
</g>
<g>
</g>
<g>
</g>
<g>
</g>
<g>
</g>
<g>
</g>
<g>
</g>
<g>
</g>
<g>
</g>
<g>
</g>
<g>
</g>
</svg>
